<svg width="25" height="19" viewBox="0 0 25 19" fill="none" xmlns="http://www.w3.org/2000/svg">
<path d="M15.9853 9.04575C18.3794 9.04575 20.3186 7.032 20.3186 4.54575C20.3186 2.0595 18.3794 0.0457458 15.9853 0.0457458C13.5911 0.0457458 11.6519 2.0595 11.6519 4.54575C11.6519 7.032 13.5911 9.04575 15.9853 9.04575ZM6.23527 6.79575V4.54575C6.23527 3.927 5.74777 3.42075 5.15194 3.42075C4.5561 3.42075 4.0686 3.927 4.0686 4.54575V6.79575H1.90194C1.3061 6.79575 0.818604 7.302 0.818604 7.92075C0.818604 8.5395 1.3061 9.04575 1.90194 9.04575H4.0686V11.2957C4.0686 11.9145 4.5561 12.4207 5.15194 12.4207C5.74777 12.4207 6.23527 11.9145 6.23527 11.2957V9.04575H8.40194C8.99777 9.04575 9.48527 8.5395 9.48527 7.92075C9.48527 7.302 8.99777 6.79575 8.40194 6.79575H6.23527ZM15.9853 11.2957C13.0928 11.2957 7.3186 12.8032 7.3186 15.7957V16.9207C7.3186 17.5395 7.8061 18.0457 8.40194 18.0457H23.5686C24.1644 18.0457 24.6519 17.5395 24.6519 16.9207V15.7957C24.6519 12.8032 18.8778 11.2957 15.9853 11.2957Z" fill="white"/>
</svg>
