<svg width="19" height="19" viewBox="0 0 19 19" fill="none" xmlns="http://www.w3.org/2000/svg">
<path fill-rule="evenodd" clip-rule="evenodd" d="M11.7937 11.628C9.64292 13.7788 6.15577 13.7788 4.00495 11.628C1.85414 9.47718 1.85414 5.99003 4.00495 3.83921C6.15577 1.6884 9.64292 1.6884 11.7937 3.83921C13.9445 5.99003 13.9445 9.47718 11.7937 11.628ZM11.9477 14.0579C9.04182 15.922 5.13199 15.5835 2.59074 13.0422C-0.341119 10.1103 -0.341119 5.35686 2.59074 2.425C5.5226 -0.50686 10.2761 -0.50686 13.2079 2.425C16.0538 5.27089 16.1373 9.83315 13.4583 12.7797C13.4737 12.7933 13.4887 12.8074 13.5035 12.8221L17.7949 17.0998C18.1861 17.4896 18.1871 18.1228 17.7972 18.514C17.4073 18.9051 16.7741 18.9061 16.383 18.5162L12.0915 14.2385C12.0356 14.1828 11.9877 14.1221 11.9477 14.0579Z" fill="white"/>
</svg>
