<svg width="18" height="18" viewBox="0 0 18 18" fill="none" xmlns="http://www.w3.org/2000/svg">
<path d="M13.1713 10.7761C13.845 9.66966 14.2013 8.39917 14.2012 7.10374C14.2012 3.17935 11.0258 0.00156522 7.10063 0C3.17898 0.00117391 2.28882e-05 3.17935 2.28882e-05 7.10296C2.28882e-05 11.023 3.17937 14.2008 7.10298 14.2008C8.44907 14.2008 9.7032 13.8205 10.775 13.1705L15.6048 18L18 15.6037L13.1713 10.7761ZM7.1022 11.4965C4.67533 11.4907 2.71333 9.52943 2.70902 7.10765C2.71068 5.94295 3.17404 4.82641 3.99754 4.00276C4.82103 3.17912 5.93749 2.71556 7.1022 2.7137C9.52789 2.71996 11.4907 4.68117 11.4958 7.10765C11.4907 9.5267 9.52711 11.4907 7.1022 11.4965Z" fill="white"/>
</svg>
