<svg width="26" height="20" viewBox="0 0 26 20" fill="none" xmlns="http://www.w3.org/2000/svg">
<path d="M20.9038 5.26521L17.5558 8.61314C17.1718 8.99714 17.4358 9.64512 17.9758 9.64512H20.1238C20.1238 13.617 16.8959 16.845 12.9239 16.845C11.976 16.845 11.052 16.665 10.224 16.317C9.79199 16.137 9.3 16.269 8.97601 16.593C8.36402 17.205 8.58002 18.2369 9.384 18.5609C10.476 19.0049 11.676 19.2449 12.9239 19.2449C18.2278 19.2449 22.5237 14.949 22.5237 9.64512H24.6717C25.2117 9.64512 25.4757 8.99714 25.0917 8.62514L21.7438 5.27721C21.5158 5.03722 21.1318 5.03722 20.9038 5.26521V5.26521ZM5.72408 9.64512C5.72408 5.6732 8.95201 2.44527 12.9239 2.44527C13.8719 2.44527 14.7959 2.62527 15.6239 2.97326C16.0559 3.15326 16.5479 3.02126 16.8719 2.69726C17.4838 2.08528 17.2678 1.0533 16.4639 0.729305C15.3719 0.285314 14.1719 0.0453186 12.9239 0.0453186C7.62004 0.0453186 3.32413 4.34123 3.32413 9.64512H1.17617C0.636181 9.64512 0.372186 10.2931 0.756178 10.6651L4.10411 14.013C4.34411 14.253 4.7161 14.253 4.95609 14.013L8.30402 10.6651C8.67602 10.2931 8.41202 9.64512 7.87203 9.64512H5.72408V9.64512Z" fill="white"/>
</svg>
