<svg width="22" height="5" viewBox="0 0 22 5" fill="none" xmlns="http://www.w3.org/2000/svg">
<path fill-rule="evenodd" clip-rule="evenodd" d="M13.0442 2.36451C13.0442 3.53748 12.0933 4.48835 10.9204 4.48835C9.7474 4.48835 8.79653 3.53748 8.79653 2.36451C8.79653 1.19154 9.7474 0.240662 10.9204 0.240662C12.0933 0.240662 13.0442 1.19154 13.0442 2.36451ZM3.53657 2.36451C3.53657 3.161 2.89089 3.80668 2.0944 3.80668C1.29791 3.80668 0.652222 3.161 0.652222 2.36451C0.652222 1.56802 1.29791 0.922333 2.0944 0.922333C2.89089 0.922333 3.53657 1.56802 3.53657 2.36451ZM19.7141 3.77387C20.4924 3.77387 21.1234 3.14287 21.1234 2.36449C21.1234 1.58611 20.4924 0.955109 19.7141 0.955109C18.9357 0.955109 18.3047 1.58611 18.3047 2.36449C18.3047 3.14287 18.9357 3.77387 19.7141 3.77387Z" fill="white"/>
</svg>
