<svg width="24" height="24" viewBox="0 0 24 24" fill="none" xmlns="http://www.w3.org/2000/svg">
<path d="M21.1328 16.0063L17.8815 15.6351C17.1007 15.5455 16.3327 15.8143 15.7823 16.3647L13.4271 18.7199C9.80465 16.8767 6.83501 13.9198 4.9918 10.2846L7.35982 7.91657C7.91023 7.36617 8.17903 6.59816 8.08943 5.81735L7.71822 2.59172C7.56462 1.29891 6.47661 0.326096 5.171 0.326096H2.95657C1.51016 0.326096 0.306947 1.52931 0.396548 2.97572C1.07495 13.907 9.81745 22.6367 20.736 23.3151C22.1824 23.4047 23.3856 22.2015 23.3856 20.7551V18.5407C23.3984 17.2479 22.4256 16.1599 21.1328 16.0063V16.0063Z" fill="white"/>
</svg>
