<svg width="25" height="25" viewBox="0 0 25 25" fill="none" xmlns="http://www.w3.org/2000/svg">
<path d="M7.41328 17.7045L9.51696 17.0977L22.1832 4.28046C22.2832 4.17809 22.3388 4.04052 22.3381 3.89748C22.3374 3.75444 22.2805 3.6174 22.1797 3.51596L21.4211 2.74908C21.3721 2.69871 21.3135 2.65862 21.2488 2.63113C21.1841 2.60364 21.1146 2.58931 21.0444 2.58898C20.9741 2.58864 20.9044 2.60231 20.8395 2.62918C20.7745 2.65606 20.7156 2.6956 20.6661 2.7455L8.03328 15.5293L7.41209 17.7034L7.41328 17.7045ZM22.9227 1.22964L23.6813 1.99772C24.7277 3.05727 24.7373 4.76663 23.7004 5.81543L10.6482 19.0245L6.15179 20.3194C5.87727 20.3962 5.58347 20.361 5.33488 20.2215C5.08629 20.082 4.9032 19.8495 4.82579 19.5752C4.76819 19.3779 4.76736 19.1684 4.8234 18.9707L6.13148 14.3838L19.149 1.20933C19.3965 0.960106 19.6912 0.762655 20.0158 0.628498C20.3405 0.494342 20.6886 0.426165 21.0398 0.427944C21.3911 0.429723 21.7385 0.501422 22.0618 0.63886C22.385 0.776298 22.6777 0.976724 22.9227 1.22845V1.22964ZM9.16217 2.60693C9.75469 2.60693 10.2349 3.0931 10.2349 3.69275C10.2359 3.83451 10.2088 3.97505 10.1554 4.10636C10.102 4.23767 10.0232 4.35716 9.92362 4.45801C9.82399 4.55885 9.70546 4.63907 9.5748 4.69408C9.44415 4.74908 9.30393 4.7778 9.16217 4.77858H4.87118C3.68615 4.77858 2.72569 5.75092 2.72569 6.94903V19.9765C2.72569 21.1758 3.68615 22.1482 4.87118 22.1482H17.7441C18.9292 22.1482 19.8908 21.1758 19.8908 19.9765V15.6344C19.8908 15.0348 20.371 14.5486 20.9636 14.5486C21.5561 14.5486 22.0363 15.0348 22.0363 15.6356V19.9765C22.0363 22.3751 20.1142 24.3198 17.7441 24.3198H4.87118C2.50111 24.3198 0.5802 22.3751 0.5802 19.9765V6.94903C0.5802 4.55162 2.50111 2.60693 4.87118 2.60693H9.16217Z" fill="white"/>
</svg>
