<svg xmlns="http://www.w3.org/2000/svg" viewBox="0 0 413.22 79.62"><defs><style>.cls-1{fill:#4a283e;}</style></defs><title>Asset 1</title><g id="Layer_2" data-name="Layer 2"><g id="Layer_1-2" data-name="Layer 1"><path class="cls-1" d="M26.78,15.6a12.44,12.44,0,0,1,5,5.57V0H47.39V58.45H31.83v-7a12.44,12.44,0,0,1-5,5.57,15.56,15.56,0,0,1-8.06,2,17.37,17.37,0,0,1-9.56-2.73,18.46,18.46,0,0,1-6.71-7.9A28.1,28.1,0,0,1,0,36.26,27.84,27.84,0,0,1,2.45,24.17a18.52,18.52,0,0,1,6.71-7.86,17.37,17.37,0,0,1,9.56-2.72A15.55,15.55,0,0,1,26.78,15.6ZM18,29.58a9.41,9.41,0,0,0-2.25,6.68A9.52,9.52,0,0,0,18,43a7.66,7.66,0,0,0,5.88,2.41A7.58,7.58,0,0,0,29.62,43a9.42,9.42,0,0,0,2.29-6.71,9.32,9.32,0,0,0-2.29-6.64,7.58,7.58,0,0,0-5.77-2.45A7.7,7.7,0,0,0,18,29.58Z"/><path class="cls-1" d="M107.14,39.1H77.83q.4,7.5,6.56,7.5a6.19,6.19,0,0,0,3.79-1.1,5.49,5.49,0,0,0,2-2.92h16.43A18.83,18.83,0,0,1,102.79,51a20.77,20.77,0,0,1-7.58,5.88,23.5,23.5,0,0,1-10,2.14,24.47,24.47,0,0,1-11.73-2.73,19.31,19.31,0,0,1-7.94-7.9,24.84,24.84,0,0,1-2.84-12.12,24.61,24.61,0,0,1,2.84-12.09,19.37,19.37,0,0,1,8-7.86,24.5,24.5,0,0,1,11.69-2.72,24.56,24.56,0,0,1,11.69,2.68,19.2,19.2,0,0,1,7.86,7.66,23.12,23.12,0,0,1,2.8,11.54A18.9,18.9,0,0,1,107.14,39.1ZM89.92,27.49a6.75,6.75,0,0,0-4.74-1.74,7.23,7.23,0,0,0-5,1.74,7.54,7.54,0,0,0-2.25,5.13H91.74A6.43,6.43,0,0,0,89.92,27.49Z"/><path class="cls-1" d="M153.4,13.54q8.67,2.84,12.11,8.2A12.75,12.75,0,0,1,167,33.14q-1.59,4.84-4.92,6.8a15,15,0,0,1-7,2.11,57.25,57.25,0,0,1-9.09-.47,37.29,37.29,0,0,0-7.06-.37A3.08,3.08,0,0,0,136,43.33a2.67,2.67,0,0,0,.28,2.38,4.45,4.45,0,0,0,2.52,1.71,8.38,8.38,0,0,0,4.88.28,5.17,5.17,0,0,0,3.31-3l15,4.92a17.87,17.87,0,0,1-10.57,9.4q-6.9,2.23-16.28-.84a26.09,26.09,0,0,1-9.11-4.88,14.72,14.72,0,0,1-4.69-6.77,12.23,12.23,0,0,1,.12-7.63,11.87,11.87,0,0,1,5-6.89,15.36,15.36,0,0,1,7.24-2.21,65.77,65.77,0,0,1,9.33.41,43.77,43.77,0,0,0,7,.23,2.84,2.84,0,0,0,2.77-1.87,2.73,2.73,0,0,0-.22-2.4,4.32,4.32,0,0,0-2.42-1.63,7.51,7.51,0,0,0-4.57-.18,6.09,6.09,0,0,0-3.44,2.84l-14.64-4.79a19.75,19.75,0,0,1,10.33-9.22Q144.57,10.66,153.4,13.54Z"/><path class="cls-1" d="M220.56,16.31a18.52,18.52,0,0,1,6.71,7.86,27.7,27.7,0,0,1,2.45,12.09,28,28,0,0,1-2.45,12.12,18.46,18.46,0,0,1-6.71,7.9A17.35,17.35,0,0,1,211,59,15.52,15.52,0,0,1,203,57a12.46,12.46,0,0,1-5.06-5.57v28.2H182.33V14.14h15.56v7A12.46,12.46,0,0,1,203,15.6a15.51,15.51,0,0,1,8.05-2A17.34,17.34,0,0,1,220.56,16.31ZM200.1,29.62a9.32,9.32,0,0,0-2.29,6.64A9.42,9.42,0,0,0,200.1,43a7.58,7.58,0,0,0,5.77,2.45A7.66,7.66,0,0,0,211.75,43,9.52,9.52,0,0,0,214,36.26a9.41,9.41,0,0,0-2.25-6.68,7.7,7.7,0,0,0-5.88-2.41A7.58,7.58,0,0,0,200.1,29.62Z"/><path class="cls-1" d="M271.81,15.6a12.43,12.43,0,0,1,5.1,5.57v-7h15.48V58.45H276.91v-7a12.43,12.43,0,0,1-5.1,5.57,15.74,15.74,0,0,1-8.09,2,17.35,17.35,0,0,1-9.56-2.73,18.46,18.46,0,0,1-6.71-7.9A28,28,0,0,1,245,36.26a27.7,27.7,0,0,1,2.45-12.09,18.52,18.52,0,0,1,6.71-7.86,17.34,17.34,0,0,1,9.56-2.72A15.74,15.74,0,0,1,271.81,15.6Zm-8.84,14a9.41,9.41,0,0,0-2.26,6.68A9.53,9.53,0,0,0,263,43a7.66,7.66,0,0,0,5.88,2.41A7.58,7.58,0,0,0,274.62,43a9.46,9.46,0,0,0,2.29-6.71,9.37,9.37,0,0,0-2.29-6.64,7.58,7.58,0,0,0-5.77-2.45A7.7,7.7,0,0,0,263,29.58Z"/><path class="cls-1" d="M344.63,18.37A21.14,21.14,0,0,1,352,31.6H335.55a6.37,6.37,0,0,0-2-3.52,5.66,5.66,0,0,0-3.75-1.22,5.5,5.5,0,0,0-4.62,2.41q-1.79,2.4-1.78,7c0,3.1.59,5.45,1.78,7a5.53,5.53,0,0,0,4.62,2.37,5.61,5.61,0,0,0,3.75-1.23,6.34,6.34,0,0,0,2-3.51H352a21.35,21.35,0,0,1-7.35,13.27A22,22,0,0,1,330.18,59a24.42,24.42,0,0,1-11.73-2.73,19.25,19.25,0,0,1-7.94-7.9,24.73,24.73,0,0,1-2.85-12.12,24.51,24.51,0,0,1,2.85-12.09,19.28,19.28,0,0,1,8-7.86,24.54,24.54,0,0,1,11.7-2.72A22.08,22.08,0,0,1,344.63,18.37Z"/><path class="cls-1" d="M408.88,18.84q4.33,5.1,4.34,13.86V58.45h-15.4V34.68a8.54,8.54,0,0,0-2-6.05,7,7,0,0,0-5.41-2.17,7.13,7.13,0,0,0-5.53,2.25,8.85,8.85,0,0,0-2.05,6.2V58.45H367.25V0h15.56V21.56a14.3,14.3,0,0,1,5.53-5.68,16.57,16.57,0,0,1,8.53-2.14Q404.54,13.74,408.88,18.84Z"/></g></g></svg>