<svg width="60" height="62" viewBox="0 0 60 62" fill="none" xmlns="http://www.w3.org/2000/svg">
<g clip-path="url(#clip0)">
<path d="M41.7019 1.95778C49.0979 4.3762 54.2674 7.88228 57.1977 12.4504C60.1408 17.0186 60.755 21.881 59.0659 27.0378C57.7095 31.1836 55.611 34.0755 52.7831 35.739C49.9424 37.4024 46.961 38.3109 43.8388 38.4389C40.7166 38.5797 36.8394 38.3749 32.2073 37.8375C28.1638 37.3385 25.1567 37.1849 23.1734 37.3641C21.2028 37.5432 19.9488 38.4517 19.4114 40.0768C19.0531 41.1644 19.1683 42.1753 19.7697 43.1222C20.3583 44.0691 21.4331 44.7985 22.9942 45.3103C25.2975 46.0653 27.3832 46.1804 29.2514 45.6686C31.1068 45.1568 32.5272 43.89 33.4869 41.8682L52.7191 48.1638C49.5841 54.2802 45.08 58.2854 39.1939 60.1919C33.3077 62.0985 26.3596 61.7402 18.3621 59.1171C13.6148 57.556 9.72489 55.483 6.71785 52.8727C3.69802 50.2751 1.70186 47.3832 0.716571 44.1971C-0.268714 41.0237 -0.21753 37.7607 0.870121 34.4466C2.22649 30.3135 4.3762 27.3704 7.30646 25.6174C10.2495 23.8772 13.3333 22.9303 16.5707 22.7895C19.8081 22.6488 23.7876 22.8279 28.5093 23.3141C32.604 23.6724 35.5854 23.7748 37.492 23.6085C39.3858 23.4421 40.5758 22.6488 41.0365 21.2156C41.4203 20.064 41.318 19.0403 40.755 18.1318C40.1919 17.2361 39.1555 16.5323 37.6583 16.0461C35.5598 15.3551 33.602 15.2783 31.8106 15.8157C30.0192 16.3532 28.5477 17.5688 27.4088 19.4498L8.67562 13.3461C11.8106 7.67755 16.2124 3.7492 21.8938 1.54831C27.5752 -0.639792 34.1779 -0.511833 41.7019 1.95778Z" fill="white"/>
</g>
<defs>
<clipPath id="clip0">
<rect width="60" height="61.3948" fill="white"/>
</clipPath>
</defs>
</svg>
