<svg width="19" height="25" viewBox="0 0 19 25" fill="none" xmlns="http://www.w3.org/2000/svg">
<path d="M18.3212 18.9472L16.7411 17.3671V11.2428C16.7411 7.48247 14.7324 4.33458 11.2293 3.50168V2.66877C11.2293 1.65214 10.4086 0.831482 9.39198 0.831482C8.37535 0.831482 7.55469 1.65214 7.55469 2.66877V3.50168C4.03934 4.33458 2.04282 7.47022 2.04282 11.2428V17.3671L0.462752 18.9472C-0.308909 19.7188 0.230029 21.0417 1.32015 21.0417H17.4516C18.5539 21.0417 19.0929 19.7188 18.3212 18.9472ZM14.2914 18.5919H4.49254V11.2428C4.49254 8.20514 6.34208 5.73092 9.39198 5.73092C12.4419 5.73092 14.2914 8.20514 14.2914 11.2428V18.5919ZM9.39198 24.7162C10.7393 24.7162 11.8417 23.6139 11.8417 22.2665H6.94226C6.94226 23.6139 8.03239 24.7162 9.39198 24.7162Z" fill="white"/>
</svg>
