<svg width="11" height="19" viewBox="0 0 11 19" fill="none" xmlns="http://www.w3.org/2000/svg">
<path d="M10.5121 16.0882L4.03023 9.49109L10.5121 2.89394C10.6668 2.73652 10.7895 2.54964 10.8732 2.34397C10.9569 2.13829 11 1.91785 11 1.69523C11 1.47261 10.9569 1.25217 10.8732 1.04649C10.7895 0.84082 10.6668 0.653939 10.5121 0.496522C10.3575 0.339105 10.1739 0.214235 9.97178 0.129042C9.7697 0.0438488 9.55311 -1.65865e-09 9.33438 0C9.11565 1.65866e-09 8.89906 0.0438488 8.69697 0.129042C8.49489 0.214235 8.31127 0.339105 8.15661 0.496522L0.488557 8.30088C0.333687 8.45819 0.210818 8.64503 0.126985 8.85072C0.0431519 9.05641 0 9.27691 0 9.49959C0 9.72228 0.0431519 9.94278 0.126985 10.1485C0.210818 10.3542 0.333687 10.541 0.488557 10.6983L8.15661 18.5027C8.80814 19.1658 9.86062 19.1658 10.5121 18.5027C11.147 17.8395 11.1637 16.7514 10.5121 16.0882Z" fill="white"/>
</svg>
