<svg width="20" height="20" viewBox="0 0 20 20" fill="none" xmlns="http://www.w3.org/2000/svg">
<path d="M15 10C14.0755 10 13.1315 10.0911 12.168 10.2734C11.8164 9.27083 11.4193 8.33333 10.9766 7.46094C12.1875 6.88802 13.265 6.16536 14.209 5.29297C15.153 4.42057 15.8984 3.44401 16.4453 2.36328C17.5521 3.30078 18.4212 4.43359 19.0527 5.76172C19.6842 7.08984 20 8.5026 20 10C20 10.2474 19.987 10.5404 19.9609 10.8789C18.3724 10.293 16.7188 10 15 10ZM10.3711 6.36719C8.97786 3.95833 7.31771 2.21354 5.39062 1.13281C6.83594 0.377604 8.3724 0 10 0C11.9661 0 13.776 0.533854 15.4297 1.60156C14.9349 2.61719 14.2546 3.53516 13.3887 4.35547C12.5228 5.17578 11.5169 5.84635 10.3711 6.36719ZM9.23828 6.79688C7.87109 7.26562 6.45833 7.5 5 7.5C3.48958 7.5 2.01172 7.23958 0.566406 6.71875C1.25651 4.73958 2.44792 3.13151 4.14062 1.89453C6.11979 2.77995 7.81901 4.41406 9.23828 6.79688ZM5 8.75C6.69271 8.75 8.30729 8.47005 9.84375 7.91016C10.2604 8.74349 10.638 9.62891 10.9766 10.5664C9.1276 11.1003 7.51628 11.9596 6.14258 13.1445C4.76888 14.3294 3.76953 15.7031 3.14453 17.2656C2.15495 16.3411 1.38346 15.2507 0.830078 13.9941C0.276693 12.7376 0 11.4062 0 10C0 9.29688 0.0716146 8.60026 0.214844 7.91016C1.79036 8.47005 3.38542 8.75 5 8.75ZM11.3477 11.7578C12.0768 14.2318 12.4544 16.8685 12.4805 19.668C11.6471 19.8893 10.8203 20 10 20C7.86458 20 5.92448 19.3685 4.17969 18.1055C4.67448 16.6211 5.55664 15.319 6.82617 14.1992C8.0957 13.0794 9.60286 12.2656 11.3477 11.7578ZM12.5586 11.4844C13.3789 11.3281 14.1927 11.25 15 11.25C16.6406 11.25 18.2292 11.5495 19.7656 12.1484C19.4141 13.763 18.7012 15.2018 17.627 16.4648C16.5527 17.7279 15.2539 18.6654 13.7305 19.2773C13.6654 16.5039 13.2747 13.9062 12.5586 11.4844Z" fill="#4A283E"/>
</svg>
