<svg width="21" height="21" viewBox="0 0 21 21" fill="none" xmlns="http://www.w3.org/2000/svg">
<path d="M6.72395 0.226105H15.124C18.324 0.226105 20.924 2.8261 20.924 6.0261V14.4261C20.924 15.9644 20.3129 17.4396 19.2252 18.5273C18.1375 19.615 16.6622 20.2261 15.124 20.2261H6.72395C3.52395 20.2261 0.92395 17.6261 0.92395 14.4261V6.0261C0.92395 4.48785 1.53502 3.0126 2.62273 1.92489C3.71044 0.837175 5.18569 0.226105 6.72395 0.226105V0.226105ZM6.52395 2.2261C5.56917 2.2261 4.6535 2.60539 3.97837 3.28052C3.30323 3.95565 2.92395 4.87133 2.92395 5.8261V14.6261C2.92395 16.6161 4.53395 18.2261 6.52395 18.2261H15.3239C16.2787 18.2261 17.1944 17.8468 17.8695 17.1717C18.5447 16.4966 18.924 15.5809 18.924 14.6261V5.8261C18.924 3.8361 17.3139 2.2261 15.3239 2.2261H6.52395ZM16.174 3.7261C16.5055 3.7261 16.8234 3.8578 17.0578 4.09222C17.2923 4.32664 17.424 4.64458 17.424 4.9761C17.424 5.30763 17.2923 5.62557 17.0578 5.85999C16.8234 6.09441 16.5055 6.2261 16.174 6.2261C15.8424 6.2261 15.5245 6.09441 15.2901 5.85999C15.0556 5.62557 14.924 5.30763 14.924 4.9761C14.924 4.64458 15.0556 4.32664 15.2901 4.09222C15.5245 3.8578 15.8424 3.7261 16.174 3.7261ZM10.924 5.2261C12.25 5.2261 13.5218 5.75289 14.4595 6.69057C15.3972 7.62825 15.924 8.90002 15.924 10.2261C15.924 11.5522 15.3972 12.824 14.4595 13.7616C13.5218 14.6993 12.25 15.2261 10.924 15.2261C9.59787 15.2261 8.3261 14.6993 7.38842 13.7616C6.45073 12.824 5.92395 11.5522 5.92395 10.2261C5.92395 8.90002 6.45073 7.62825 7.38842 6.69057C8.3261 5.75289 9.59787 5.2261 10.924 5.2261V5.2261ZM10.924 7.2261C10.1283 7.2261 9.36524 7.54217 8.80263 8.10478C8.24002 8.66739 7.92395 9.43046 7.92395 10.2261C7.92395 11.0218 8.24002 11.7848 8.80263 12.3474C9.36524 12.91 10.1283 13.2261 10.924 13.2261C11.7196 13.2261 12.4827 12.91 13.0453 12.3474C13.6079 11.7848 13.924 11.0218 13.924 10.2261C13.924 9.43046 13.6079 8.66739 13.0453 8.10478C12.4827 7.54217 11.7196 7.2261 10.924 7.2261Z" fill="white"/>
</svg>
