<svg width="19" height="19" viewBox="0 0 19 19" fill="none" xmlns="http://www.w3.org/2000/svg">
<path d="M16.0397 0.0228882C16.5701 0.0228882 17.0788 0.233602 17.4539 0.608675C17.829 0.983747 18.0397 1.49246 18.0397 2.02289V16.0229C18.0397 16.5533 17.829 17.062 17.4539 17.4371C17.0788 17.8122 16.5701 18.0229 16.0397 18.0229H2.03967C1.50924 18.0229 1.00053 17.8122 0.625459 17.4371C0.250386 17.062 0.0396729 16.5533 0.0396729 16.0229V2.02289C0.0396729 1.49246 0.250386 0.983747 0.625459 0.608675C1.00053 0.233602 1.50924 0.0228882 2.03967 0.0228882H16.0397ZM15.5397 15.5229V10.2229C15.5397 9.35828 15.1962 8.52909 14.5848 7.91772C13.9735 7.30635 13.1443 6.96289 12.2797 6.96289C11.4297 6.96289 10.4397 7.48289 9.95967 8.26289V7.15289H7.16967V15.5229H9.95967V10.5929C9.95967 9.82289 10.5797 9.19289 11.3497 9.19289C11.721 9.19289 12.0771 9.34039 12.3396 9.60294C12.6022 9.86549 12.7497 10.2216 12.7497 10.5929V15.5229H15.5397ZM3.91967 5.58289C4.36524 5.58289 4.79255 5.40589 5.10761 5.09083C5.42267 4.77577 5.59967 4.34845 5.59967 3.90289C5.59967 2.97289 4.84967 2.21289 3.91967 2.21289C3.47146 2.21289 3.0416 2.39094 2.72466 2.70788C2.40773 3.02481 2.22967 3.45467 2.22967 3.90289C2.22967 4.83289 2.98967 5.58289 3.91967 5.58289ZM5.30967 15.5229V7.15289H2.53967V15.5229H5.30967Z" fill="white"/>
</svg>
