<?xml version="1.0" encoding="utf-8"?>
<!-- Generator: Adobe Illustrator 24.0.3, SVG Export Plug-In . SVG Version: 6.00 Build 0)  -->
<svg version="1.1" id="Layer_1" xmlns="http://www.w3.org/2000/svg" xmlns:xlink="http://www.w3.org/1999/xlink" x="0px" y="0px"
	 viewBox="0 0 22 18" style="enable-background:new 0 0 22 18;" xml:space="preserve">
<style type="text/css">
	.st0{fill:#4A283E;}
</style>
<path class="st0" d="M21.5,2.2c-0.8,0.4-1.6,0.6-2.5,0.7C20,2.4,20.6,1.5,21,0.5c-0.8,0.5-1.8,0.8-2.7,1c-0.8-0.9-1.9-1.4-3.2-1.4
	c-2.3,0-4.3,1.9-4.3,4.3c0,0.3,0,0.7,0.1,1C7.4,5.3,4.2,3.6,2.1,1C1.7,1.6,1.5,2.4,1.5,3.2c0,1.5,0.7,2.8,1.9,3.6
	c-0.7,0-1.4-0.2-2-0.5c0,0,0,0,0,0c0,2.1,1.5,3.8,3.4,4.2c-0.4,0.1-0.7,0.2-1.1,0.2c-0.3,0-0.5,0-0.8-0.1c0.5,1.7,2.1,2.9,4,3
	c-1.5,1.2-3.3,1.8-5.3,1.8c-0.3,0-0.7,0-1-0.1c1.9,1.2,4.2,1.9,6.6,1.9c7.9,0,12.2-6.5,12.2-12.2c0-0.2,0-0.4,0-0.6
	C20.2,3.9,21,3.1,21.5,2.2z"/>
</svg>
