<svg width="22" height="18" viewBox="0 0 22 18" fill="none" xmlns="http://www.w3.org/2000/svg">
<path d="M21.5441 2.2261C20.7741 2.5761 19.9441 2.8061 19.0841 2.9161C19.9641 2.3861 20.6441 1.5461 20.9641 0.536105C20.1341 1.0361 19.2141 1.3861 18.2441 1.5861C17.4541 0.726105 16.3441 0.226105 15.0841 0.226105C12.7341 0.226105 10.8141 2.1461 10.8141 4.5161C10.8141 4.8561 10.8541 5.18611 10.9241 5.49611C7.36415 5.31611 4.19415 3.6061 2.08415 1.0161C1.71415 1.6461 1.50415 2.3861 1.50415 3.1661C1.50415 4.6561 2.25415 5.9761 3.41415 6.7261C2.70415 6.7261 2.04415 6.5261 1.46415 6.2261C1.46415 6.2261 1.46415 6.2261 1.46415 6.2561C1.46415 8.3361 2.94415 10.0761 4.90415 10.4661C4.54415 10.5661 4.16415 10.6161 3.77415 10.6161C3.50415 10.6161 3.23415 10.5861 2.97415 10.5361C3.51415 12.2261 5.08415 13.4861 6.97415 13.5161C5.51415 14.6761 3.66415 15.3561 1.64415 15.3561C1.30415 15.3561 0.964145 15.3361 0.624145 15.2961C2.52415 16.5161 4.78415 17.2261 7.20415 17.2261C15.0841 17.2261 19.4141 10.6861 19.4141 5.0161C19.4141 4.8261 19.4141 4.6461 19.4041 4.4561C20.2441 3.8561 20.9641 3.0961 21.5441 2.2261Z" fill="white"/>
</svg>
