<svg width="24" height="25" viewBox="0 0 24 25" fill="none" xmlns="http://www.w3.org/2000/svg">
<path fill-rule="evenodd" clip-rule="evenodd" d="M10.6702 1.95291C10.6702 1.26256 11.2299 0.702911 11.9202 0.702911C12.6106 0.702911 13.1702 1.26256 13.1702 1.95291V11.2166H22.434C23.1243 11.2166 23.684 11.7762 23.684 12.4666C23.684 13.1569 23.1243 13.7166 22.434 13.7166H13.1702V22.9803C13.1702 23.6706 12.6106 24.2303 11.9202 24.2303C11.2299 24.2303 10.6702 23.6706 10.6702 22.9803V13.7166H1.40662C0.716261 13.7166 0.156616 13.1569 0.156616 12.4666C0.156616 11.7762 0.716261 11.2166 1.40662 11.2166H10.6702V1.95291Z" fill="white"/>
</svg>
