<svg width="29" height="17" viewBox="0 0 29 17" fill="none" xmlns="http://www.w3.org/2000/svg">
<path d="M8.54954 6.5233H6.16893V4.14269C6.16893 3.48802 5.63329 2.95239 4.97863 2.95239C4.32396 2.95239 3.78832 3.48802 3.78832 4.14269V6.5233H1.40771C0.753044 6.5233 0.217407 7.05894 0.217407 7.71361C0.217407 8.36828 0.753044 8.90391 1.40771 8.90391H3.78832V11.2845C3.78832 11.9392 4.32396 12.4748 4.97863 12.4748C5.63329 12.4748 6.16893 11.9392 6.16893 11.2845V8.90391H8.54954C9.20421 8.90391 9.73985 8.36828 9.73985 7.71361C9.73985 7.05894 9.20421 6.5233 8.54954 6.5233ZM21.6429 7.71361C23.6188 7.71361 25.2019 6.1186 25.2019 4.14269C25.2019 2.16679 23.6188 0.571777 21.6429 0.571777C21.262 0.571777 20.893 0.631292 20.5597 0.73842C21.2382 1.70257 21.631 2.86907 21.631 4.14269C21.631 5.41632 21.2263 6.57091 20.5597 7.54696C20.893 7.65409 21.262 7.71361 21.6429 7.71361ZM15.6914 7.71361C17.6673 7.71361 19.2504 6.1186 19.2504 4.14269C19.2504 2.16679 17.6673 0.571777 15.6914 0.571777C13.7155 0.571777 12.1205 2.16679 12.1205 4.14269C12.1205 6.1186 13.7155 7.71361 15.6914 7.71361ZM15.6914 10.0942C13.3108 10.0942 8.54954 11.2845 8.54954 13.6651V14.8554C8.54954 15.5101 9.08518 16.0457 9.73985 16.0457H21.6429C22.2976 16.0457 22.8332 15.5101 22.8332 14.8554V13.6651C22.8332 11.2845 18.072 10.0942 15.6914 10.0942ZM23.5712 10.2847C24.5591 11.1536 25.2138 12.2606 25.2138 13.6651V15.4506C25.2138 15.6529 25.19 15.8553 25.1543 16.0457H28.1896C28.5229 16.0457 28.7847 15.7839 28.7847 15.4506V13.6651C28.7847 11.8321 25.9637 10.7013 23.5712 10.2847Z" fill="white"/>
</svg>
