<svg width="29" height="30" viewBox="0 0 29 30" fill="none" xmlns="http://www.w3.org/2000/svg">
<path fill-rule="evenodd" clip-rule="evenodd" d="M13.1603 13.5259C11.4161 15.2702 8.5881 15.2702 6.84387 13.5259C5.09965 11.7817 5.09965 8.95376 6.84387 7.20954C8.5881 5.46531 11.4161 5.46531 13.1603 7.20954C14.9045 8.95376 14.9045 11.7817 13.1603 13.5259ZM13.9651 16.0985C11.2499 17.9808 7.49491 17.7125 5.07611 15.2937C2.35557 12.5732 2.35557 8.16231 5.07611 5.44177C7.79664 2.72123 12.2075 2.72123 14.928 5.44177C17.3468 7.86057 17.6151 11.6155 15.7328 14.3307L22.155 20.7529L22.1581 20.7559L22.1611 20.759L23.8441 22.442C24.3322 22.9301 24.3322 23.7216 23.8441 24.2097C23.3559 24.6979 22.5645 24.6979 22.0763 24.2097L21.2742 23.4076L19.6445 25.0372C19.1564 25.5254 18.3649 25.5254 17.8767 25.0372C17.3886 24.5491 17.3886 23.7576 17.8767 23.2695L19.5064 21.6398L13.9651 16.0985Z" fill="white"/>
</svg>
