<svg width="18" height="25" viewBox="0 0 18 25" fill="none" xmlns="http://www.w3.org/2000/svg">
<path d="M9 0C10.023 0 11.0041 0.406377 11.7274 1.12973C12.4508 1.85309 12.8571 2.83417 12.8571 3.85714V11.5714C12.8571 12.5944 12.4508 13.5755 11.7274 14.2988C11.0041 15.0222 10.023 15.4286 9 15.4286C7.97702 15.4286 6.99594 15.0222 6.27259 14.2988C5.54923 13.5755 5.14286 12.5944 5.14286 11.5714V3.85714C5.14286 2.83417 5.54923 1.85309 6.27259 1.12973C6.99594 0.406377 7.97702 0 9 0ZM18 11.5714C18 16.11 14.6443 19.8514 10.2857 20.4814V24.4286H7.71429V20.4814C3.35571 19.8514 0 16.11 0 11.5714H2.57143C2.57143 13.2764 3.24872 14.9115 4.45431 16.1171C5.6599 17.3227 7.29504 18 9 18C10.705 18 12.3401 17.3227 13.5457 16.1171C14.7513 14.9115 15.4286 13.2764 15.4286 11.5714H18Z" fill="white"/>
</svg>
