<svg width="17" height="24" viewBox="0 0 17 24" fill="none" xmlns="http://www.w3.org/2000/svg">
<path fill-rule="evenodd" clip-rule="evenodd" d="M9.63147 11.3983V3.79368C9.63147 3.08793 9.05934 2.5158 8.35359 2.5158C7.64784 2.5158 7.07572 3.08792 7.07572 3.79367L7.07571 11.3983C7.07571 12.1041 7.64784 12.6762 8.35359 12.6762C9.05935 12.6762 9.63147 12.1041 9.63147 11.3983ZM11.6315 3.79368C11.6315 1.98336 10.1639 0.5158 8.35359 0.5158C6.54327 0.5158 5.07572 1.98335 5.07572 3.79367L5.07571 11.3983C5.07571 13.2087 6.54327 14.6762 8.35359 14.6762C10.1639 14.6762 11.6315 13.2087 11.6315 11.3983V3.79368ZM9.35352 19.791C13.1893 19.3001 16.1539 16.0233 16.1539 12.0541C16.1539 11.5018 15.7062 11.0541 15.1539 11.0541C14.6016 11.0541 14.1539 11.5018 14.1539 12.0541C14.1539 15.2576 11.557 17.8545 8.35349 17.8545C5.15002 17.8545 2.5531 15.2576 2.5531 12.0541C2.5531 11.5018 2.10539 11.0541 1.5531 11.0541C1.00082 11.0541 0.553101 11.5018 0.553101 12.0541C0.553101 16.0234 3.51774 19.3002 7.35352 19.791V20.9837V22.9815C7.35352 23.5338 7.80123 23.9815 8.35352 23.9815C8.9058 23.9815 9.35352 23.5338 9.35352 22.9815V20.9837V19.791Z" fill="white"/>
</svg>
